<svg width="427.3" height="100.4" xmlns="http://www.w3.org/2000/svg" style="vector-effect: non-scaling-stroke;" stroke="null">

 <g stroke="null">
  <title stroke="null">background</title>
  <rect stroke="null" fill="none" id="canvas_background" height="402" width="582" y="-1" x="-1"/>
 </g>
 <g stroke="null">
  <title stroke="null">Layer 1</title>
  <path stroke="null" style="vector-effect: non-scaling-stroke;" id="svg_10" d="m-281.767365,-753.011597l0.678253,0l0,0c0.088837,0 0.160858,0.223877 0.160858,0.5c0,0.276123 -0.072021,0.5 -0.160858,0.5l-0.678253,0l0,0c-0.088867,0 -0.160889,-0.223877 -0.160889,-0.5c0,-0.276123 0.072021,-0.5 0.160889,-0.5z" stroke-width="1.5" fill="#80bd01"/>
  <path stroke="null" transform="rotate(90.073974609375 246.90725708007812,56.058959960937486) " id="svg_20" d="m224.853729,50.553787l44.106812,0l0,0c5.778076,0 10.462219,2.464756 10.462219,5.505177c0,3.040421 -4.684143,5.505173 -10.462219,5.505173l-44.106812,0l0,0c-5.777863,0 -10.461975,-2.464752 -10.461975,-5.505173c0,-3.040421 4.684113,-5.505177 10.461975,-5.505177z" stroke-width="1.5" fill="#80bd01"/>
  <path stroke="null" id="svg_21" d="m252.639023,88.172646c-2.887497,-0.649796 -5.95842,-2.051247 -7.785034,-5.440872c-0.761307,-1.416924 -1.07164,-3.221069 -0.974564,-4.970543c-0.12706,-2.27002 0.818604,-4.310654 2.048569,-5.674644c2.455933,-2.767342 5.694824,-3.731339 8.780106,-3.968941c3.283966,-0.183418 6.696136,0.571724 9.564911,2.902573c1.749146,1.495438 3.297943,4.06736 3.210876,7.072144c0.095642,1.764328 -0.143616,3.636398 -1.030182,4.977013c-1.756805,2.971458 -4.520325,4.269577 -7.145142,4.984596c-2.198151,0.55439 -4.461777,0.587059 -6.66954,0.118675l0,0zm5.365067,-1.734337c1.416656,-0.421486 2.345947,-2.40509 2.326111,-4.365158c0.242004,-4.11792 -0.739868,-8.621155 -3.139648,-11.226868c-1.3461,-1.321037 -3.264328,-1.450737 -4.688965,-0.31028c-1.061996,0.894005 -1.458664,2.66687 -1.456116,4.310654c-0.115082,3.496101 0.621536,7.151619 2.290863,9.810425c1.171432,1.715027 3.023468,2.633408 4.667755,1.781227l0,0z" stroke-width="1.5" fill="#80bd01"/>
  <text transform="matrix(2.9832185274910894,0,0,2.024107782130114,-41.29845460348945,-49.094094529361236) " xml:space="preserve" text-anchor="start" font-family="Helvetica, Arial, sans-serif" font-size="24" id="svg_22" y="66.784678" x="104.112604" stroke-width="1.5" fill="#80bd01">i</text>
  <text font-style="normal" font-weight="bold" stroke="null" transform="rotate(-8.737297058105469 121.24094390869126,55.33522796630862) matrix(3.1364248776405117,0,0,2.9144999407650394,-28.376322248303413,-80.78102524598043) " stroke-dasharray="5,2,2,2" xml:space="preserve" text-anchor="start" font-family="'Simonetta', serif" font-size="24" id="svg_24" y="55.415937" x="11" stroke-width="3" fill="#80bd01">哔哔波</text>
  <path stroke="null" transform="rotate(90.073974609375 296.90728759765625,56.058937072753885) " id="svg_26" d="m274.853729,50.553764l44.106842,0l0,0c5.778076,0 10.462219,2.464756 10.462219,5.505177c0,3.040421 -4.684143,5.505173 -10.462219,5.505173l-44.106842,0l0,0c-5.777832,0 -10.461945,-2.464752 -10.461945,-5.505173c0,-3.040421 4.684113,-5.505177 10.461945,-5.505177z" stroke-width="1.5" fill="#80bd01"/>
  <path stroke="null" id="svg_27" d="m302.639038,88.172646c-2.887512,-0.649796 -5.958435,-2.051247 -7.785034,-5.440872c-0.761322,-1.416924 -1.071655,-3.221069 -0.974579,-4.970543c-0.127045,-2.27002 0.818604,-4.310654 2.048553,-5.674644c2.455933,-2.767342 5.694824,-3.731339 8.780121,-3.968941c3.283966,-0.183418 6.696136,0.571724 9.564911,2.902573c1.749146,1.495438 3.297943,4.06736 3.210876,7.072144c0.095642,1.764328 -0.143616,3.636398 -1.030182,4.977013c-1.756805,2.971458 -4.520325,4.269577 -7.145142,4.984596c-2.198151,0.55439 -4.461761,0.587059 -6.669525,0.118675l0,0zm5.365051,-1.734337c1.416656,-0.421486 2.345947,-2.40509 2.326111,-4.365158c0.242004,-4.11792 -0.739868,-8.621155 -3.139648,-11.226868c-1.3461,-1.321037 -3.264343,-1.450737 -4.688965,-0.31028c-1.062012,0.894005 -1.458649,2.66687 -1.456116,4.310654c-0.115082,3.496101 0.621552,7.151619 2.290863,9.810425c1.171448,1.715027 3.023468,2.633408 4.667755,1.781227l0,0z" stroke-width="1.5" fill="#80bd01"/>
  <text transform="matrix(2.9832185274910894,0,0,2.024107782130114,-41.29845460348945,-49.094094529361236) " xml:space="preserve" text-anchor="start" font-family="Helvetica, Arial, sans-serif" font-size="24" id="svg_28" y="66.784678" x="120.873025" stroke-width="1.5" fill="#80bd01">i</text>
  <path stroke="null" transform="rotate(90.073974609375 351.4092102050781,55.55960083007812) " id="svg_34" d="m329.016541,50.555706l44.785065,0l0,0c5.866943,0 10.623108,2.240318 10.623108,5.003883c0,2.763565 -4.756165,5.003883 -10.623108,5.003883l-44.785065,0l0,0c-5.866699,0 -10.622833,-2.240318 -10.622833,-5.003883c0,-2.763565 4.756134,-5.003883 10.622833,-5.003883z" stroke-width="1.5" fill="#80bd01"/>
  <path stroke="null" id="svg_35" d="m356.639038,88.172646c-2.887512,-0.649796 -5.958435,-2.051247 -7.785034,-5.440872c-0.761322,-1.416924 -1.071655,-3.221069 -0.974579,-4.970543c-0.127045,-2.27002 0.818604,-4.310654 2.048553,-5.674644c2.455933,-2.767342 5.694824,-3.731339 8.780121,-3.968941c3.283966,-0.183418 6.696136,0.571724 9.564911,2.902573c1.749146,1.495438 3.297943,4.06736 3.210876,7.072144c0.095642,1.764328 -0.143616,3.636398 -1.030182,4.977013c-1.756805,2.971458 -4.520325,4.269577 -7.145142,4.984596c-2.198151,0.55439 -4.461761,0.587059 -6.669525,0.118675l0,0zm5.365051,-1.734337c1.416656,-0.421486 2.345947,-2.40509 2.326111,-4.365158c0.242004,-4.11792 -0.739868,-8.621155 -3.139648,-11.226868c-1.3461,-1.321037 -3.264343,-1.450737 -4.688965,-0.31028c-1.062012,0.894005 -1.458649,2.66687 -1.456116,4.310654c-0.115082,3.496101 0.621552,7.151619 2.290863,9.810425c1.171448,1.715027 3.023468,2.633408 4.667755,1.781227l0,0z" stroke-width="1.5" fill="#80bd01"/>
  <path stroke="null" id="svg_37" d="m388.124054,87.076714c-3.376068,-0.840843 -6.966583,-2.654335 -9.102234,-7.040535c-0.890137,-1.833511 -1.25296,-4.168091 -1.139465,-6.431923c-0.14856,-2.937424 0.957092,-5.578018 2.395142,-7.343033c2.87146,-3.580959 6.658356,-4.828381 10.265686,-5.135838c3.8396,-0.237347 7.829071,0.739815 11.183228,3.755947c2.045105,1.935112 3.855957,5.263199 3.75415,9.151413c0.111816,2.283051 -0.167908,4.705528 -1.204468,6.440292c-2.054077,3.845093 -5.285156,5.524864 -8.354065,6.450104c-2.570068,0.717384 -5.216675,0.759659 -7.797974,0.153572l0,0zm6.272766,-2.244247c1.656372,-0.54541 2.742889,-3.112206 2.719696,-5.648552c0.282928,-5.328621 -0.865051,-11.155838 -3.670868,-14.527649c-1.573853,-1.709435 -3.81665,-1.87727 -5.4823,-0.401505c-1.241699,1.156845 -1.705444,3.450951 -1.702484,5.578018c-0.134552,4.523979 0.726715,9.25425 2.678467,12.694763c1.369629,2.219261 3.535004,3.407654 5.457489,2.304924l0,0z" stroke-width="1.5" fill="#80bd01"/>
 </g>
</svg>