<svg width="427.3" height="100.4" xmlns="http://www.w3.org/2000/svg" style="vector-effect: non-scaling-stroke;" stroke="null">

 <g stroke="null">
  <title stroke="null">background</title>
  <rect stroke="null" fill="none" id="canvas_background" height="402" width="582" y="-1" x="-1"/>
 </g>
 <g stroke="null">
  <title stroke="null">Layer 1</title>
  <path stroke="null" style="vector-effect: non-scaling-stroke;" id="svg_10" d="m-281.767365,-753.011597l0.678253,0l0,0c0.088837,0 0.160858,0.223877 0.160858,0.5c0,0.276123 -0.072021,0.5 -0.160858,0.5l-0.678253,0l0,0c-0.088867,0 -0.160889,-0.223877 -0.160889,-0.5c0,-0.276123 0.072021,-0.5 0.160889,-0.5z" stroke-width="1.5" fill="#80bd01"/>
  <path transform="rotate(90.073974609375 130.42401123046875,49.557052612304695) " id="svg_14" d="m99.895081,39.552528l61.057602,0l0,0c7.998672,0 14.482956,4.479191 14.482956,10.004532c0,5.525341 -6.484283,10.00452 -14.482956,10.00452l-61.057602,0l0,0c-7.998383,0 -14.482666,-4.479179 -14.482666,-10.00452c0,-5.525341 6.484283,-10.004532 14.482666,-10.004532z" stroke-width="1.5" fill="#80bd01"/>
  <path id="svg_15" d="m142.321503,93.78891c-5.085968,-1.413986 -10.495026,-4.463577 -13.712341,-11.839508c-1.340973,-3.083282 -1.887543,-7.00914 -1.716583,-10.816055c-0.223816,-4.939629 1.441864,-9.380112 3.608276,-12.348217c4.325836,-6.02182 10.030762,-8.119511 15.465088,-8.636539c5.784317,-0.39912 11.794403,1.244099 16.847382,6.31609c3.080933,3.254131 5.80899,8.850697 5.655609,15.38921c0.168427,3.839233 -0.25296,7.912903 -1.814545,10.830139c-3.09436,6.465981 -7.961975,9.290733 -12.585266,10.846634c-3.871796,1.206367 -7.858856,1.277451 -11.74762,0.258247l0,0zm9.44989,-3.773972c2.4953,-0.917175 4.132141,-5.233559 4.097229,-9.498726c0.426178,-8.960716 -1.303192,-18.759888 -5.53009,-24.430023c-2.371033,-2.874611 -5.749725,-3.156837 -8.259094,-0.675171c-1.870575,1.9454 -2.569244,5.803192 -2.564758,9.380119c-0.202698,7.607635 1.094742,15.562134 4.035095,21.347786c2.063324,3.731964 5.325455,5.730377 8.221619,3.876015l0,0z" stroke-width="1.5" fill="#80bd01"/>
  <path transform="rotate(90.073974609375 217.42401123046875,49.55705261230471) " id="svg_16" d="m186.895081,39.552528l61.057617,0l0,0c7.998657,0 14.482941,4.479191 14.482941,10.004532c0,5.525341 -6.484283,10.00452 -14.482941,10.00452l-61.057617,0l0,0c-7.998383,0 -14.482666,-4.479179 -14.482666,-10.00452c0,-5.525341 6.484283,-10.004532 14.482666,-10.004532z" stroke-width="1.5" fill="#80bd01"/>
  <path id="svg_17" d="m229.321503,93.78891c-5.085968,-1.413986 -10.495026,-4.463577 -13.712341,-11.839508c-1.340973,-3.083282 -1.887543,-7.00914 -1.716583,-10.816055c-0.223816,-4.939629 1.441864,-9.380112 3.608276,-12.348217c4.325836,-6.02182 10.030762,-8.119511 15.465088,-8.636539c5.784302,-0.39912 11.794403,1.244099 16.847382,6.31609c3.080933,3.254131 5.80899,8.850697 5.655609,15.38921c0.168427,3.839233 -0.25296,7.912903 -1.814545,10.830139c-3.09436,6.465981 -7.961975,9.290733 -12.585266,10.846634c-3.871796,1.206367 -7.858826,1.277451 -11.74762,0.258247l0,0zm9.44989,-3.773972c2.4953,-0.917175 4.132141,-5.233559 4.097229,-9.498726c0.426178,-8.960716 -1.303192,-18.759888 -5.53009,-24.430023c-2.371033,-2.874611 -5.749725,-3.156837 -8.259094,-0.675171c-1.870575,1.9454 -2.569244,5.803192 -2.564758,9.380119c-0.202698,7.607635 1.094757,15.562134 4.035095,21.347786c2.063324,3.731964 5.325439,5.730377 8.221619,3.876015l0,0z" stroke-width="1.5" fill="#80bd01"/>
  <text transform="matrix(5.355648197538584,0,0,2.884865131970991,-216.42471384173226,-108.26409564562135) " xml:space="preserve" text-anchor="start" font-family="Helvetica, Arial, sans-serif" font-size="24" id="svg_19" y="69.312516" x="71.770825" stroke-width="1.5" fill="#80bd01">i</text>
  <path transform="rotate(90.073974609375 42.42402648925782,49.55705261230469) " id="svg_20" d="m11.895081,39.552528l61.057602,0l0,0c7.998672,0 14.482956,4.479191 14.482956,10.004532c0,5.525341 -6.484283,10.00452 -14.482956,10.00452l-61.057602,0l0,0c-7.998383,0 -14.482666,-4.479179 -14.482666,-10.00452c0,-5.525341 6.484283,-10.004532 14.482666,-10.004532z" stroke-width="1.5" fill="#80bd01"/>
  <path id="svg_21" d="m54.321503,93.78891c-5.085968,-1.413986 -10.495026,-4.463577 -13.712341,-11.839508c-1.340973,-3.083282 -1.887543,-7.00914 -1.716583,-10.816055c-0.223816,-4.939629 1.441864,-9.380119 3.608276,-12.348217c4.325836,-6.02182 10.030762,-8.119511 15.465088,-8.636539c5.784317,-0.39912 11.794403,1.244099 16.847382,6.31609c3.080933,3.254131 5.80899,8.850697 5.655609,15.38921c0.168427,3.839233 -0.25296,7.912903 -1.814545,10.830139c-3.09436,6.465981 -7.961975,9.290733 -12.585266,10.846634c-3.871796,1.206367 -7.858856,1.277451 -11.74762,0.258247l0,0zm9.44989,-3.773972c2.4953,-0.917175 4.132141,-5.233559 4.097229,-9.498726c0.426178,-8.960716 -1.303192,-18.759895 -5.53009,-24.430023c-2.371033,-2.874611 -5.749725,-3.156837 -8.259094,-0.675171c-1.870575,1.9454 -2.569244,5.803192 -2.564758,9.380119c-0.202698,7.607635 1.094742,15.562134 4.035095,21.347786c2.063324,3.731964 5.325455,5.730377 8.221619,3.876015l0,0z" stroke-width="1.5" fill="#80bd01"/>
  <text transform="matrix(5.355648197538584,0,0,2.884865131970991,-216.42471384173226,-108.26409564562135) " xml:space="preserve" text-anchor="start" font-family="Helvetica, Arial, sans-serif" font-size="24" id="svg_22" y="69.659153" x="55.152855" stroke-width="1.5" fill="#80bd01">i</text>
  <path id="svg_23" d="m282.321503,91.78891c-5.085968,-1.413986 -10.495026,-4.463577 -13.712341,-11.839508c-1.340973,-3.083282 -1.887543,-7.00914 -1.716583,-10.816055c-0.223816,-4.939629 1.441864,-9.380116 3.608276,-12.348217c4.325836,-6.02182 10.030762,-8.119511 15.465088,-8.636539c5.784302,-0.39912 11.794403,1.244099 16.847382,6.31609c3.080933,3.254131 5.80899,8.850697 5.655609,15.38921c0.168427,3.839233 -0.25296,7.912903 -1.814545,10.830139c-3.09436,6.465981 -7.961975,9.290733 -12.585266,10.846634c-3.871796,1.206367 -7.858826,1.277451 -11.74762,0.258247l0,0zm9.44989,-3.773972c2.4953,-0.917175 4.132141,-5.233559 4.097229,-9.498726c0.426178,-8.960716 -1.303192,-18.759892 -5.53009,-24.430023c-2.371033,-2.874611 -5.749725,-3.156837 -8.259094,-0.675171c-1.870575,1.9454 -2.569244,5.803192 -2.564758,9.380119c-0.202698,7.607635 1.094757,15.562134 4.035095,21.347786c2.063324,3.731964 5.325439,5.730377 8.221619,3.876015l0,0z" stroke-width="1.5" fill="#80bd01"/>
 </g>
</svg>